<svg width="33" height="33" viewBox="0 0 33 33" fill="none" xmlns="http://www.w3.org/2000/svg">
<rect opacity="0.4" width="33" height="33" rx="6" fill="#201E21"/>
<path d="M17.0002 8.00868C13.3138 8.00868 9.81324 7.68101 8.47616 11.1098C7.92386 12.526 8.00406 14.3652 8.00406 16.9987C8.00406 19.3097 7.92995 21.4816 8.47616 22.8866C9.8102 26.3175 13.3392 25.9888 16.9982 25.9888C20.5282 25.9888 24.1679 26.356 25.5212 22.8866C26.0746 21.4562 25.9933 19.6444 25.9933 16.9987C25.9933 13.4867 26.1873 11.2194 24.4826 9.51716C22.7567 7.7926 20.4226 8.00868 16.9962 8.00868H17.0002ZM16.1941 9.62875C23.8836 9.61658 24.8623 8.76241 24.3222 20.6284C24.1303 24.8252 20.9323 24.3647 17.0012 24.3647C9.83355 24.3647 9.62745 24.1597 9.62745 16.9947C9.62745 9.74643 10.196 9.63281 16.1941 9.62672V9.62875ZM21.8024 11.121C21.2064 11.121 20.7232 11.6039 20.7232 12.1994C20.7232 12.7949 21.2064 13.2777 21.8024 13.2777C22.3983 13.2777 22.8816 12.7949 22.8816 12.1994C22.8816 11.6039 22.3983 11.121 21.8024 11.121V11.121ZM17.0002 12.382C14.4489 12.382 12.3808 14.4494 12.3808 16.9987C12.3808 19.548 14.4489 21.6145 17.0002 21.6145C19.5516 21.6145 21.6186 19.548 21.6186 16.9987C21.6186 14.4494 19.5516 12.382 17.0002 12.382V12.382ZM17.0002 14.002C20.9648 14.002 20.9699 19.9954 17.0002 19.9954C13.0367 19.9954 13.0306 14.002 17.0002 14.002Z" fill="#828282"/>
</svg>
