<svg width="31" height="31" viewBox="0 0 31 31" fill="none" xmlns="http://www.w3.org/2000/svg">
<circle cx="15.5" cy="15.5" r="15.5" fill="#343135"/>
<g clip-path="url(#clip0)">
<path d="M20.0371 17.2202C19.3024 17.2202 18.5811 17.1149 17.8975 16.9078C17.5625 16.8031 17.1507 16.8992 16.9463 17.0916L15.597 18.0253C14.0322 17.2597 13.0683 16.3764 12.2445 14.9528L13.2331 13.7482C13.4899 13.513 13.582 13.1696 13.4717 12.8473C13.2448 12.2174 13.1295 11.5564 13.1295 10.8827C13.1296 10.396 12.6976 10 12.1667 10H9.96291C9.43197 10 9 10.396 9 10.8827C9 16.4614 13.9512 21 20.0371 21C20.5681 21 21 20.604 21 20.1173V18.1029C21 17.6162 20.568 17.2202 20.0371 17.2202Z" fill="white"/>
</g>
<defs>
<clipPath id="clip0">
<rect width="12" height="11" fill="white" transform="translate(9 10)"/>
</clipPath>
</defs>
</svg>
