<svg width="33" height="33" viewBox="0 0 33 33" fill="none" xmlns="http://www.w3.org/2000/svg">
<rect opacity="0.4" width="33" height="33" rx="6" fill="#201E21"/>
<path d="M15.7752 21.9523H16.8529C16.8529 21.9523 17.1777 21.9179 17.3434 21.7446C17.5009 21.5829 17.5009 21.2838 17.5009 21.2838C17.5009 21.2838 17.4777 19.8742 18.1527 19.6672C18.8179 19.4617 19.6617 21.0278 20.561 21.6297C21.248 22.0898 21.7647 21.9911 21.7647 21.9911L24.173 21.9589C24.173 21.9589 25.4345 21.8821 24.8382 20.9158C24.7925 20.839 24.5 20.2027 23.06 18.897C21.551 17.5357 21.7535 17.7552 23.567 15.3955C24.6687 13.9581 25.1195 13.0796 24.9732 12.7066C24.8487 12.3555 24.0282 12.4425 24.0282 12.4425L21.3267 12.4652C21.3267 12.4652 21.1242 12.4425 20.978 12.531C20.8317 12.6181 20.7425 12.8171 20.7425 12.8171C20.7425 12.8171 20.3135 13.9355 19.7404 14.8798C18.5232 16.876 18.0394 16.9857 17.8482 16.854C17.3952 16.568 17.5114 15.6983 17.5114 15.0751C17.5114 13.1433 17.8144 12.3321 16.9257 12.1236C16.6332 12.0571 16.4149 12.0139 15.6619 12.0022C14.6944 11.992 13.8784 12.0095 13.4157 12.2297C13.1119 12.3782 12.8757 12.7066 13.0114 12.7234C13.1914 12.7454 13.5957 12.8302 13.8094 13.1162C14.0907 13.4863 14.0787 14.3129 14.0787 14.3129C14.0787 14.3129 14.2369 16.5921 13.7082 16.8752C13.3369 17.0669 12.8419 16.6704 11.7619 14.8593C11.2106 13.9377 10.7936 12.9063 10.7936 12.9063C10.7936 12.9063 10.7149 12.719 10.5694 12.6093C10.3991 12.4886 10.1516 12.4447 10.1516 12.4447L7.57538 12.4667C7.57538 12.4667 7.19288 12.4784 7.05863 12.6422C6.93413 12.7849 7.04663 13.0921 7.04663 13.0921C7.04663 13.0921 9.06114 17.6908 11.3457 20.0066C13.4382 22.1293 15.8127 21.9926 15.8127 21.9926L15.7752 21.9523V21.9523Z" fill="#828282"/>
</svg>
